<svg width="45" height="40" viewBox="0 0 45 40" fill="none" xmlns="http://www.w3.org/2000/svg">
<path d="M16.25 0C13.9141 0 11.9766 1.60156 11.4219 3.76562C11.3594 3.76562 11.3125 3.75 11.25 3.75C8.49219 3.75 6.25 5.99219 6.25 8.75C6.25 9.125 6.29687 9.49219 6.38281 9.84375C4.10156 10.7812 2.5 13.0156 2.5 15.625C2.5 16.6094 2.75 17.5234 3.14844 18.3516C1.27344 19.4297 0 21.4297 0 23.75C0 26.3516 1.59375 28.5859 3.85938 29.5234C3.78906 29.8828 3.75 30.25 3.75 30.625C3.75 33.7344 6.26562 36.25 9.375 36.25C9.69531 36.25 10.0078 36.2109 10.3125 36.1562C11.0625 38.3828 13.1406 40 15.625 40C18.7344 40 21.25 37.4844 21.25 34.375V5C21.25 2.24219 19.0078 0 16.25 0ZM45 23.75C45 21.4297 43.7266 19.4297 41.8516 18.3516C42.2578 17.5234 42.5 16.6094 42.5 15.625C42.5 13.0156 40.8984 10.7812 38.6172 9.84375C38.6953 9.49219 38.75 9.125 38.75 8.75C38.75 5.99219 36.5078 3.75 33.75 3.75C33.6875 3.75 33.6328 3.76562 33.5781 3.76562C33.0234 1.60156 31.0859 0 28.75 0C25.9922 0 23.75 2.23438 23.75 5V34.375C23.75 37.4844 26.2656 40 29.375 40C31.8594 40 33.9375 38.3828 34.6875 36.1562C34.9922 36.2109 35.3047 36.25 35.625 36.25C38.7344 36.25 41.25 33.7344 41.25 30.625C41.25 30.25 41.2109 29.8828 41.1406 29.5234C43.4062 28.5859 45 26.3516 45 23.75Z" fill="black"/>
</svg>
