<svg width="31" height="32" viewBox="0 0 31 32" fill="none" xmlns="http://www.w3.org/2000/svg">
<path d="M22.125 20H20.7425L20.2525 19.5275C22.0269 17.4696 23.0021 14.8422 23 12.125C23 9.87524 22.3329 7.676 21.083 5.80539C19.8331 3.93479 18.0565 2.47682 15.978 1.61588C13.8995 0.754929 11.6124 0.529666 9.40585 0.968573C7.19932 1.40748 5.17249 2.49084 3.58167 4.08167C1.99084 5.67249 0.90748 7.69932 0.468573 9.90585C0.0296656 12.1124 0.254929 14.3995 1.11588 16.478C1.97682 18.5565 3.43479 20.3331 5.30539 21.583C7.176 22.8329 9.37524 23.5 11.625 23.5C14.4425 23.5 17.0325 22.4675 19.0275 20.7525L19.5 21.2425V22.625L28.25 31.3575L30.8575 28.75L22.125 20ZM11.625 20C7.26751 20 3.75001 16.4825 3.75001 12.125C3.75001 7.76751 7.26751 4.25001 11.625 4.25001C15.9825 4.25001 19.5 7.76751 19.5 12.125C19.5 16.4825 15.9825 20 11.625 20Z" fill="black"/>
</svg>
</svg>
