<?xml version="1.0" encoding="UTF-8"?>
<svg version="1.1" xmlns="http://www.w3.org/2000/svg" width="558" height="447">
<path d="M0 0 C0.6496875 0.25910156 1.299375 0.51820312 1.96875 0.78515625 C8.6299893 4.76908975 13.90027023 14.62346244 16 22 C18.7555377 35.83791882 19.49243056 50.087277 13 63 C12.69320312 63.64066406 12.38640625 64.28132813 12.0703125 64.94140625 C11.40509741 66.30668103 10.70733473 67.65606402 10 69 C10.99 70.485 10.99 70.485 12 72 C12.78921927 75.91574178 12.68071789 79.47463623 11.04296875 83.14453125 C9.50745154 85.31726598 8.28017787 86.61452049 6 88 C1.69108831 88.73991413 -2.61558086 88.68995958 -6.8359375 87.46875 C-10.2226967 86.73515595 -13.54030499 86.94233842 -17 87 C-16.99476318 87.62567871 -16.98952637 88.25135742 -16.98413086 88.89599609 C-16.96338382 91.72232057 -16.95034714 94.54862905 -16.9375 97.375 C-16.92912109 98.35984375 -16.92074219 99.3446875 -16.91210938 100.359375 C-16.90888672 101.30039063 -16.90566406 102.24140625 -16.90234375 103.2109375 C-16.89710693 104.08024902 -16.89187012 104.94956055 -16.88647461 105.84521484 C-17 108 -17 108 -18 110 C-20.81256281 110.02684312 -23.62487241 110.04676188 -26.4375 110.0625 C-27.64116211 110.07506836 -27.64116211 110.07506836 -28.86914062 110.08789062 C-30.91295221 110.0965143 -32.95683902 110.0522815 -35 110 C-36 109 -36 109 -36.09765625 106.05859375 C-36.08605469 104.86363281 -36.07445312 103.66867188 -36.0625 102.4375 C-36.05347656 101.23996094 -36.04445312 100.04242188 -36.03515625 98.80859375 C-36.02355469 97.88175781 -36.01195312 96.95492187 -36 96 C-36.49371094 96.15855469 -36.98742187 96.31710938 -37.49609375 96.48046875 C-48.8464106 98.83552669 -60.50532865 97.4776471 -70.4453125 91.5390625 C-74.42020789 88.81064999 -74.42020789 88.81064999 -76 87 C-76 85.68 -76 84.36 -76 83 C-72.87651801 83.35696937 -71.2977309 83.72933555 -68.9375 85.875 C-63.38166505 89.89411464 -56.13227367 91.50508918 -49.3125 90.75 C-47.87327512 90.51012919 -46.43574754 90.25987545 -45 90 C-43.31376238 89.80146744 -41.62621348 89.61373645 -39.9375 89.4375 C-37.9884375 89.2209375 -37.9884375 89.2209375 -36 89 C-36 88.34 -36 87.68 -36 87 C-37.08269165 87.00785522 -37.08269165 87.00785522 -38.18725586 87.01586914 C-41.43732849 87.03657358 -44.68738728 87.04963918 -47.9375 87.0625 C-49.64196289 87.07506836 -49.64196289 87.07506836 -51.38085938 87.08789062 C-52.46044922 87.09111328 -53.54003906 87.09433594 -54.65234375 87.09765625 C-56.15269165 87.10551147 -56.15269165 87.10551147 -57.68334961 87.11352539 C-60 87 -60 87 -61 86 C-61.0983721 84.66956375 -61.13078592 83.33406656 -61.1328125 82 C-61.13474609 80.7934375 -61.13474609 80.7934375 -61.13671875 79.5625 C-61.13285156 78.716875 -61.12898437 77.87125 -61.125 77 C-61.12886719 76.154375 -61.13273438 75.30875 -61.13671875 74.4375 C-61.13542969 73.633125 -61.13414062 72.82875 -61.1328125 72 C-61.13168457 71.2575 -61.13055664 70.515 -61.12939453 69.75 C-61 68 -61 68 -60 67 C-58.21928754 66.91273777 -56.4351686 66.89300959 -54.65234375 66.90234375 C-53.57275391 66.90556641 -52.49316406 66.90878906 -51.38085938 66.91210938 C-49.67639648 66.92467773 -49.67639648 66.92467773 -47.9375 66.9375 C-46.22723633 66.94426758 -46.22723633 66.94426758 -44.48242188 66.95117188 C-41.65489649 66.96300253 -38.8274736 66.9794859 -36 67 C-36.0407666 66.41508789 -36.0815332 65.83017578 -36.12353516 65.22753906 C-36.30228316 62.56899204 -36.46380807 59.90966679 -36.625 57.25 C-36.68945312 56.32960937 -36.75390625 55.40921875 -36.8203125 54.4609375 C-36.871875 53.57148438 -36.9234375 52.68203125 -36.9765625 51.765625 C-37.05511475 50.54020996 -37.05511475 50.54020996 -37.13525391 49.29003906 C-37 47 -37 47 -35 43 C-29.39 43 -23.78 43 -18 43 C-21.61461252 36.82871033 -25.37573625 30.91372255 -29.58203125 25.12890625 C-33.0219723 19.96425646 -32.53356884 13.96978474 -32 8 C-30.79215009 3.66097228 -28.33211344 0.86975163 -24.5 -1.4375 C-16.38009267 -4.95208676 -7.77816609 -3.6112914 0 0 Z M-25 5 C-27.78313563 9.43562241 -28.48663037 12.98845342 -27.56640625 18.03515625 C-26.04854355 23.30056962 -22.83378852 27.2719549 -19.5 31.5 C-10.77324903 42.61866558 -9.55035345 52.91107492 -10 67 C-9.34 67.33 -8.68 67.66 -8 68 C-7.13375 67.525625 -6.2675 67.05125 -5.375 66.5625 C-2.03644264 65.01687159 -1.33370185 64.90973781 2.0625 65.25 C5.8234968 65.39463059 5.8234968 65.39463059 7.55078125 63.734375 C12.77814264 56.88791938 13.34395167 48.94391743 13.25 40.625 C13.24419922 39.37916138 13.24419922 39.37916138 13.23828125 38.1081543 C13.15486344 32.18838659 12.50670926 26.74432906 11 21 C10.34 21 9.68 21 9 21 C8.938125 20.34 8.87625 19.68 8.8125 19 C7.04103537 12.4592075 3.37642669 7.54141664 -2.3203125 3.8984375 C-4.62586132 2.66523697 -6.38009732 2.18713591 -9 2 C-10.0209375 1.92458984 -10.0209375 1.92458984 -11.0625 1.84765625 C-16.49284257 1.61833435 -20.3406137 2.11118049 -25 5 Z M-17 48 C-17 52.95 -17 57.9 -17 63 C-14.56477502 59.34716253 -14.44525633 56.25031548 -15 52 C-15.66 50.68 -16.32 49.36 -17 48 Z M-12 69 C-12.33 70.65 -12.66 72.3 -13 74 C-12.34 74 -11.68 74 -11 74 C-10.67 72.35 -10.34 70.7 -10 69 C-10.66 69 -11.32 69 -12 69 Z " fill="#1D2DB6" transform="translate(233,83)"/>
<path d="M0 0 C0.6496875 0.25910156 1.299375 0.51820312 1.96875 0.78515625 C8.6299893 4.76908975 13.90027023 14.62346244 16 22 C18.7555377 35.83791882 19.49243056 50.087277 13 63 C12.69320312 63.64066406 12.38640625 64.28132813 12.0703125 64.94140625 C11.40509741 66.30668103 10.70733473 67.65606402 10 69 C10.99 70.485 10.99 70.485 12 72 C12.78921927 75.91574178 12.68071789 79.47463623 11.04296875 83.14453125 C9.50165971 85.32546134 8.29656898 86.6194538 6 88 C2.25743759 88.56472135 -1.24777485 88.4206231 -5 88 C-0.96707255 85.7655402 2.44967434 85.45503257 7 85 C7.33 81.04 7.66 77.08 8 73 C6.35 72.34 4.7 71.68 3 71 C2.67 70.67 2.34 70.34 2 70 C-3.14131184 69.47186651 -3.14131184 69.47186651 -7.4375 72 C-8.2109375 72.99 -8.2109375 72.99 -9 74 C-9 72.02 -9 70.04 -9 68 C-2.57142857 63.71428571 -2.57142857 63.71428571 2.1875 64.125 C6.13652639 64.44209133 6.13652639 64.44209133 8.375 61.5 C11.68436682 54.372133 12.30226472 47.92505851 12.1875 40.1875 C12.18685547 39.34251953 12.18621094 38.49753906 12.18554688 37.62695312 C12.16030104 34.09534088 12.12679176 31.38037528 11 28 C10.96045766 25.66700175 10.95598268 23.33291811 11 21 C10.34 21 9.68 21 9 21 C8.18501438 19.3970947 7.37310073 17.79262722 6.5625 16.1875 C6.11003906 15.29417969 5.65757812 14.40085937 5.19140625 13.48046875 C4 11 4 11 3 8 C1.11683841 6.89163577 1.11683841 6.89163577 -1 6 C-1.99 5.34 -2.98 4.68 -4 4 C-9.72532311 2.31608144 -16.28262029 2.11804895 -21.9375 4.125 C-25.14579958 5.74525111 -25.14579958 5.74525111 -26.5 8.6875 C-27.58710157 15.88954789 -26.17295193 21.10586018 -22 27 C-20.19394811 29.32376042 -18.36727385 31.62146643 -16.48828125 33.88671875 C-15.01023917 35.98546092 -14.42448977 37.4926804 -14 40 C-15.485 39.505 -15.485 39.505 -17 39 C-17.66 39.66 -18.32 40.32 -19 41 C-20.42408093 38.8638786 -21.84778881 36.727523 -23.26953125 34.58984375 C-24.40553661 32.88968222 -25.54855972 31.19418469 -26.69921875 29.50390625 C-27.23160156 28.71886719 -27.76398438 27.93382813 -28.3125 27.125 C-29.04919922 26.04605469 -29.04919922 26.04605469 -29.80078125 24.9453125 C-32.98474045 19.78045361 -32.52308522 13.85248968 -32 8 C-30.79215009 3.66097228 -28.33211344 0.86975163 -24.5 -1.4375 C-16.38009267 -4.95208676 -7.77816609 -3.6112914 0 0 Z " fill="#A1A9D4" transform="translate(233,83)"/>
<path d="M0 0 C2.12430388 3.50037117 2.34969968 6.51023866 2.5625 10.5625 C2.92378823 16.72375463 3.41075027 22.85675808 4 29 C4.42667969 28.51402344 4.85335937 28.02804688 5.29296875 27.52734375 C7 26 7 26 10.3125 25.5625 C14.81713699 26.09694846 16.81259635 26.73485479 20 30 C20.68047444 34.05667453 20.86725557 38.26548885 19 42 C11.25781841 44.84406671 3.12575518 44.17750436 -5 44 C-4.99214478 44.93851807 -4.99214478 44.93851807 -4.98413086 45.89599609 C-4.96338382 48.72232057 -4.95034714 51.54862905 -4.9375 54.375 C-4.92912109 55.35984375 -4.92074219 56.3446875 -4.91210938 57.359375 C-4.90727539 58.77089844 -4.90727539 58.77089844 -4.90234375 60.2109375 C-4.89448853 61.51490479 -4.89448853 61.51490479 -4.88647461 62.84521484 C-5 65 -5 65 -6 67 C-8.81256281 67.02684312 -11.62487241 67.04676188 -14.4375 67.0625 C-15.23994141 67.07087891 -16.04238281 67.07925781 -16.86914062 67.08789062 C-18.91295221 67.0965143 -20.95683902 67.0522815 -23 67 C-24 66 -24 66 -24.09765625 63.05859375 C-24.08605469 61.86363281 -24.07445312 60.66867188 -24.0625 59.4375 C-24.05347656 58.23996094 -24.04445312 57.04242188 -24.03515625 55.80859375 C-24.02355469 54.88175781 -24.01195312 53.95492187 -24 53 C-24.99 52.67 -25.98 52.34 -27 52 C-23.49223216 50.39644899 -20.85645121 49.77963136 -17 50 C-16.67 49.01 -16.34 48.02 -16 47 C-14.2578125 45.60546875 -14.2578125 45.60546875 -12.125 44.1875 C-8.46554122 41.57079023 -6.63156134 39.28284851 -5 35 C-4.34 35 -3.68 35 -3 35 C-2.67 33.35 -2.34 31.7 -2 30 C-1.01 30.33 -0.02 30.66 1 31 C0.9278125 30.35675781 0.855625 29.71351563 0.78125 29.05078125 C0.12383025 22.65006955 -0.0639468 16.37829363 0.0625 9.9453125 C0.08817403 7.01209738 0.08817403 7.01209738 -0.5625 4.2421875 C-1 2 -1 2 0 0 Z " fill="#92509D" transform="translate(221,126)"/>
<path d="M0 0 C5.085661 0.55942271 10.23445344 0.32212532 15.34375 0.2578125 C17.34375 0.2578125 19.34375 0.2578125 21.34375 0.2578125 C21.4675 1.2271875 21.59125 2.1965625 21.71875 3.1953125 C21.925 4.2059375 22.13125 5.2165625 22.34375 6.2578125 C23.00375 6.5878125 23.66375 6.9178125 24.34375 7.2578125 C24.01375 4.9478125 23.68375 2.6378125 23.34375 0.2578125 C27.30202235 0.19995603 31.2601867 0.16426533 35.21875 0.1328125 C36.34667969 0.11605469 37.47460938 0.09929687 38.63671875 0.08203125 C39.71308594 0.07558594 40.78945313 0.06914062 41.8984375 0.0625 C42.89343262 0.05202637 43.88842773 0.04155273 44.91357422 0.03076172 C47.34375 0.2578125 47.34375 0.2578125 49.34375 2.2578125 C49.67375 1.5978125 50.00375 0.9378125 50.34375 0.2578125 C51.313125 0.4434375 52.2825 0.6290625 53.28125 0.8203125 C54.7971875 1.036875 54.7971875 1.036875 56.34375 1.2578125 C56.67375 0.9278125 57.00375 0.5978125 57.34375 0.2578125 C59.69688555 0.18509509 62.05208668 0.17410382 64.40625 0.1953125 C66.34177734 0.20884766 66.34177734 0.20884766 68.31640625 0.22265625 C69.31542969 0.23425781 70.31445312 0.24585938 71.34375 0.2578125 C72.48018966 3.66713147 72.21122764 4.26116706 70.90625 7.4453125 C70.47505859 8.51845703 70.47505859 8.51845703 70.03515625 9.61328125 C69.69291016 10.42732422 69.69291016 10.42732422 69.34375 11.2578125 C66.73930652 11.31175955 64.13598002 11.35145719 61.53125 11.3828125 C60.42426758 11.40794922 60.42426758 11.40794922 59.29492188 11.43359375 C55.43128574 11.46855878 53.63471332 11.45178805 50.34375 9.2578125 C50.34375 9.9178125 50.34375 10.5778125 50.34375 11.2578125 C41.01041667 11.2578125 31.67708333 11.2578125 22.34375 11.2578125 C21.704375 11.26941406 21.065 11.28101563 20.40625 11.29296875 C19.725625 11.30199219 19.045 11.31101563 18.34375 11.3203125 C17.663125 11.33191406 16.9825 11.34351563 16.28125 11.35546875 C14.34375 11.2578125 14.34375 11.2578125 11.34375 10.2578125 C10.0095395 10.58761734 8.67640363 10.92177203 7.34375 11.2578125 C4.94936131 11.3508516 2.55244048 11.3877787 0.15625 11.3828125 C-1.72126953 11.38667969 -1.72126953 11.38667969 -3.63671875 11.390625 C-6.65625 11.2578125 -6.65625 11.2578125 -7.65625 10.2578125 C-7.61857046 8.58831895 -7.50196204 6.92021962 -7.34375 5.2578125 C-7.26511719 4.3503125 -7.18648437 3.4428125 -7.10546875 2.5078125 C-6.95722656 1.7653125 -6.80898437 1.0228125 -6.65625 0.2578125 C-4.14676997 -0.99692752 -2.68494533 -0.44369859 0 0 Z " fill="#E06292" transform="translate(244.65625,191.7421875)"/>
<path d="M0 0 C0.99 0 1.98 0 3 0 C3 0.99 3 1.98 3 3 C3.66 3 4.32 3 5 3 C6.60517022 18.2925001 6.04640843 31.41219708 -2 45 C-1.34 45.99 -0.68 46.98 0 48 C0.78921927 51.91574178 0.68071789 55.47463623 -0.95703125 59.14453125 C-2.49834029 61.32546134 -3.70343102 62.6194538 -6 64 C-9.74256241 64.56472135 -13.24777485 64.4206231 -17 64 C-12.96707255 61.7655402 -9.55032566 61.45503257 -5 61 C-4.67 57.04 -4.34 53.08 -4 49 C-5.65 48.34 -7.3 47.68 -9 47 C-9.33 46.67 -9.66 46.34 -10 46 C-15.14131184 45.47186651 -15.14131184 45.47186651 -19.4375 48 C-19.953125 48.66 -20.46875 49.32 -21 50 C-21 48.02 -21 46.04 -21 44 C-14.57142857 39.71428571 -14.57142857 39.71428571 -9.8125 40.125 C-5.86347361 40.44209133 -5.86347361 40.44209133 -3.625 37.5 C0.24374886 29.16731015 0.25434631 21.55424181 0.125 12.5 C0.11597656 11.29601562 0.10695312 10.09203125 0.09765625 8.8515625 C0.07423775 5.9008321 0.04143993 2.95052311 0 0 Z " fill="#949FD2" transform="translate(245,107)"/>
<path d="M0 0 C4.10486132 -0.10762928 8.20692052 -0.18714805 12.3125 -0.25 C13.47974609 -0.28351563 14.64699219 -0.31703125 15.84960938 -0.3515625 C17.52700195 -0.37089844 17.52700195 -0.37089844 19.23828125 -0.390625 C20.26993408 -0.41157227 21.30158691 -0.43251953 22.36450195 -0.45410156 C25 0 25 0 26.83666992 1.83691406 C28.41505516 4.77175 28.41102495 6.71180037 28 10 C26.83666992 12.16308594 26.83666992 12.16308594 25 14 C22.36450195 14.45410156 22.36450195 14.45410156 19.23828125 14.390625 C18.12001953 14.37773437 17.00175781 14.36484375 15.84960938 14.3515625 C14.68236328 14.31804687 13.51511719 14.28453125 12.3125 14.25 C11.13365234 14.23195312 9.95480469 14.21390625 8.74023438 14.1953125 C5.82647764 14.14812616 2.91313759 14.07638234 0 14 C0 9.38 0 4.76 0 0 Z M6 4 C6 4.33 6 4.66 6 5 C7.98 5 9.96 5 12 5 C12 6.65 12 8.3 12 10 C12.33 10 12.66 10 13 10 C13 8.02 13 6.04 13 4 C10.69 4 8.38 4 6 4 Z M20 4 C20 5.65 20 7.3 20 9 C20.33 9 20.66 9 21 9 C21 7.35 21 5.7 21 4 C20.67 4 20.34 4 20 4 Z " fill="#6E77C2" transform="translate(236,175)"/>
<path d="M0 0 C0.99 0 1.98 0 3 0 C3 7.92 3 15.84 3 24 C0.215625 24.020625 -2.56875 24.04125 -5.4375 24.0625 C-6.31591553 24.071604 -7.19433105 24.08070801 -8.09936523 24.09008789 C-10.06645974 24.09723091 -12.03353621 24.05031893 -14 24 C-15 23 -15 23 -15.09765625 20.05859375 C-15.08605469 18.86363281 -15.07445312 17.66867188 -15.0625 16.4375 C-15.05347656 15.23996094 -15.04445312 14.04242188 -15.03515625 12.80859375 C-15.02355469 11.88175781 -15.01195312 10.95492187 -15 10 C-15.99 9.67 -16.98 9.34 -18 9 C-14.49223216 7.39644899 -11.85645121 6.77963136 -8 7 C-7.67 6.01 -7.34 5.02 -7 4 C-5.35448038 3.28272222 -3.68577711 2.61674772 -2 2 C-1.34 1.34 -0.68 0.68 0 0 Z " fill="#EE0E60" transform="translate(212,169)"/>
<path d="M0 0 C4.75458167 2.31633466 4.75458167 2.31633466 5.875 5.4375 C5.99512883 7.90014093 5.77538135 9.67385595 5 12 C5.66 12.33 6.32 12.66 7 13 C7.02911321 16.0833134 7.04683682 19.16659125 7.0625 22.25 C7.07087891 23.12269531 7.07925781 23.99539062 7.08789062 24.89453125 C7.09111328 25.73886719 7.09433594 26.58320313 7.09765625 27.453125 C7.10289307 28.22817383 7.10812988 29.00322266 7.11352539 29.80175781 C7.00036998 31.99283598 6.60552448 33.89637861 6 36 C5.34 36 4.68 36 4 36 C3.67 37.65 3.34 39.3 3 41 C2.34 41 1.68 41 1 41 C0.731875 41.969375 0.46375 42.93875 0.1875 43.9375 C-0.4003125 45.4534375 -0.4003125 45.4534375 -1 47 C-1.99 47.33 -2.98 47.66 -4 48 C-2.96802867 45.07608122 -1.85796628 42.79840375 -0.0625 40.25 C2.42323678 36.33308144 3.70184467 32.42552953 5 28 C4.34 28 3.68 28 3 28 C3 28.99 3 29.98 3 31 C1.35 31 -0.3 31 -2 31 C-2 30.01 -2 29.02 -2 28 C-1.34 28 -0.68 28 0 28 C0 21.73 0 15.46 0 9 C-5.28 9 -10.56 9 -16 9 C-15.98839844 10.50433594 -15.97679687 12.00867188 -15.96484375 13.55859375 C-15.95546751 15.51822793 -15.94636713 17.47786345 -15.9375 19.4375 C-15.92912109 20.43072266 -15.92074219 21.42394531 -15.91210938 22.44726562 C-15.90727539 23.86362305 -15.90727539 23.86362305 -15.90234375 25.30859375 C-15.89448853 26.62041626 -15.89448853 26.62041626 -15.88647461 27.95874023 C-16 30 -16 30 -17 31 C-18.85369611 31.08737645 -20.71067541 31.10698153 -22.56640625 31.09765625 C-23.69111328 31.09443359 -24.81582031 31.09121094 -25.97460938 31.08789062 C-27.15861328 31.07951172 -28.34261719 31.07113281 -29.5625 31.0625 C-30.75037109 31.05798828 -31.93824219 31.05347656 -33.16210938 31.04882812 C-36.10812226 31.03699675 -39.05403681 31.02051287 -42 31 C-42 30.67 -42 30.34 -42 30 C-34.08 30 -26.16 30 -18 30 C-18.40692706 23.59732309 -18.40692706 23.59732309 -18.83837891 17.19628906 C-18.88397949 16.39416992 -18.92958008 15.59205078 -18.9765625 14.765625 C-19.02893066 13.94868164 -19.08129883 13.13173828 -19.13525391 12.29003906 C-19 10 -19 10 -17 6 C-11.39 6 -5.78 6 0 6 C0 4.02 0 2.04 0 0 Z M1 11 C1 15.95 1 20.9 1 26 C3.43522498 22.34716253 3.55474367 19.25031548 3 15 C2.34 13.68 1.68 12.36 1 11 Z " fill="#545FB4" transform="translate(215,120)"/>
<path d="M0 0 C0.66 0.66 1.32 1.32 2 2 C2.33 1.34 2.66 0.68 3 0 C3.969375 0.185625 4.93875 0.37125 5.9375 0.5625 C6.948125 0.706875 7.95875 0.85125 9 1 C9.33 0.67 9.66 0.34 10 0 C12.35313555 -0.07271741 14.70833668 -0.08370868 17.0625 -0.0625 C18.35285156 -0.05347656 19.64320313 -0.04445312 20.97265625 -0.03515625 C21.97167969 -0.02355469 22.97070312 -0.01195312 24 0 C25.13643966 3.40931897 24.86747764 4.00335456 23.5625 7.1875 C23.13130859 8.26064453 23.13130859 8.26064453 22.69140625 9.35546875 C22.34916016 10.16951172 22.34916016 10.16951172 22 11 C19.39555652 11.05394705 16.79223002 11.09364469 14.1875 11.125 C13.44951172 11.14175781 12.71152344 11.15851563 11.95117188 11.17578125 C8.08753574 11.21074628 6.29096332 11.19397555 3 9 C3 9.66 3 10.32 3 11 C-1.33333333 11 -5.66666667 11 -10 11 C-11.7634375 11.0309375 -11.7634375 11.0309375 -13.5625 11.0625 C-17 11 -17 11 -19 10 C-19 8.68 -19 7.36 -19 6 C-18.34 6 -17.68 6 -17 6 C-17 6.99 -17 7.98 -17 9 C-16.01 8.67 -15.02 8.34 -14 8 C-5.7826087 7.73913043 -5.7826087 7.73913043 -2 9 C-2 7.02 -2 5.04 -2 3 C-3.98 3 -5.96 3 -8 3 C-8 2.34 -8 1.68 -8 1 C-5.23749964 -0.38125018 -3.05268901 -0.19079306 0 0 Z " fill="#E983AE" transform="translate(292,192)"/>
<path d="M0 0 C2.64 0 5.28 0 8 0 C8.33 0.66 8.66 1.32 9 2 C9.33 1.34 9.66 0.68 10 0 C12.31 0 14.62 0 17 0 C17 4.62 17 9.24 17 14 C11.39 14 5.78 14 0 14 C0 9.38 0 4.76 0 0 Z " fill="#343FA4" transform="translate(217,175)"/>
<path d="M0 0 C5.08797438 0.55781779 10.24000282 0.3269915 15.3515625 0.2578125 C15.6815625 1.9078125 16.0115625 3.5578125 16.3515625 5.2578125 C15.0315625 4.2678125 13.7115625 3.2778125 12.3515625 2.2578125 C11.6915625 4.2378125 11.0315625 6.2178125 10.3515625 8.2578125 C13.3215625 8.7528125 13.3215625 8.7528125 16.3515625 9.2578125 C16.3515625 9.9178125 16.3515625 10.5778125 16.3515625 11.2578125 C15.6090625 11.0721875 14.8665625 10.8865625 14.1015625 10.6953125 C11.5059482 10.09018183 11.5059482 10.09018183 9.62890625 10.72265625 C6.45376196 11.46878793 3.42100843 11.38956265 0.1640625 11.3828125 C-1.71345703 11.38667969 -1.71345703 11.38667969 -3.62890625 11.390625 C-6.6484375 11.2578125 -6.6484375 11.2578125 -7.6484375 10.2578125 C-7.61075796 8.58831895 -7.49414954 6.92021962 -7.3359375 5.2578125 C-7.25730469 4.3503125 -7.17867187 3.4428125 -7.09765625 2.5078125 C-6.94941406 1.7653125 -6.80117187 1.0228125 -6.6484375 0.2578125 C-4.14088047 -0.99596602 -2.68255922 -0.44519068 0 0 Z " fill="#E385AE" transform="translate(244.6484375,191.7421875)"/>
<path d="M0 0 C1.32 0 2.64 0 4 0 C3.52260234 3.15082457 2.79390171 5.42012344 1.375 8.3125 C-0.27331516 12.73298156 -0.29218551 15.51745301 1 20 C3.47109924 25.22732531 6.8283509 29.44617035 10.51171875 33.88671875 C11.98976083 35.98546092 12.57551023 37.4926804 13 40 C11.515 39.505 11.515 39.505 10 39 C9.34 39.66 8.68 40.32 8 41 C6.57591907 38.8638786 5.15221119 36.727523 3.73046875 34.58984375 C2.59446339 32.88968222 1.45144028 31.19418469 0.30078125 29.50390625 C-0.23160156 28.71886719 -0.76398438 27.93382813 -1.3125 27.125 C-2.04919922 26.04605469 -2.04919922 26.04605469 -2.80078125 24.9453125 C-5.96890139 19.80614692 -5.57145147 13.82730121 -5 8 C-3.85530211 4.92492521 -2.35057952 2.35057952 0 0 Z " fill="#8A92CA" transform="translate(206,83)"/>
<path d="M0 0 C2.31 0 4.62 0 7 0 C7.66 0.99 8.32 1.98 9 3 C9.33 2.01 9.66 1.02 10 0 C11.65 0 13.3 0 15 0 C15 4.62 15 9.24 15 14 C13.02 14 11.04 14 9 14 C8.34 13.01 7.68 12.02 7 11 C6.67 11.99 6.34 12.98 6 14 C4.02 14 2.04 14 0 14 C0 9.38 0 4.76 0 0 Z " fill="#2733A4" transform="translate(284,175)"/>
<path d="M0 0 C1.98 0 3.96 0 6 0 C6 0.99 6 1.98 6 3 C6.66 3 7.32 3 8 3 C8.33 2.01 8.66 1.02 9 0 C11.31 0 13.62 0 16 0 C15.67 0.763125 15.34 1.52625 15 2.3125 C13.82563314 4.99069135 13.82563314 4.99069135 14 8 C14 8.99 14 9.98 14 11 C14.66 11 15.32 11 16 11 C16.33 11.99 16.66 12.98 17 14 C9.49230769 14.36923077 9.49230769 14.36923077 7 12.5 C6.67 12.005 6.34 11.51 6 11 C6 11.99 6 12.98 6 14 C4.02 14 2.04 14 0 14 C0 9.38 0 4.76 0 0 Z " fill="#3A42B5" transform="translate(300,175)"/>
<path d="M0 0 C3.12348199 0.35696937 4.7022691 0.72933555 7.0625 2.875 C14.58949612 8.32006102 23.29837388 8.33808885 32.1875 7.12890625 C35.17329252 6.99205743 36.51368397 7.41616888 39 9 C33.12116651 11.61281488 27.29268272 11.18328202 21 11 C21 11.66 21 12.32 21 13 C25.95 13 30.9 13 36 13 C36 13.33 36 13.66 36 14 C22.61721686 14.56480679 12.50399925 13.77850045 1.36328125 5.5625 C0 4 0 4 0 0 Z " fill="#5868C1" transform="translate(157,166)"/>
<path d="M0 0 C0 1.32 0 2.64 0 4 C0.99 4.33 1.98 4.66 3 5 C4.76938948 8.53877896 4.6277038 12.14589865 4 16 C2.58886202 19.1808438 0.99338935 21.20057124 -2 23 C-5.74256241 23.56472135 -9.24777485 23.4206231 -13 23 C-8.96707255 20.7655402 -5.55032566 20.45503257 -1 20 C-0.67 16.04 -0.34 12.08 0 8 C-2.475 7.01 -2.475 7.01 -5 6 C-5.33 5.67 -5.66 5.34 -6 5 C-11.14131184 4.47186651 -11.14131184 4.47186651 -15.4375 7 C-15.953125 7.66 -16.46875 8.32 -17 9 C-17 7.02 -17 5.04 -17 3 C-11.04268146 -1.27372852 -7.1216296 -1.31828958 0 0 Z " fill="#6F70BC" transform="translate(241,148)"/>
<path d="M0 0 C3.96 0 7.92 0 12 0 C12 4.62 12 9.24 12 14 C8.04 14 4.08 14 0 14 C0 9.38 0 4.76 0 0 Z " fill="#3E49AB" transform="translate(236,175)"/>
<path d="M0 0 C4.75458167 2.31633466 4.75458167 2.31633466 5.875 5.4375 C5.99512883 7.90014093 5.77538135 9.67385595 5 12 C5.66 12.33 6.32 12.66 7 13 C7.02911321 16.0833134 7.04683682 19.16659125 7.0625 22.25 C7.07087891 23.12269531 7.07925781 23.99539062 7.08789062 24.89453125 C7.09111328 25.73886719 7.09433594 26.58320313 7.09765625 27.453125 C7.10289307 28.22817383 7.10812988 29.00322266 7.11352539 29.80175781 C7.00036998 31.99283598 6.60552448 33.89637861 6 36 C5.34 36 4.68 36 4 36 C3.505 38.475 3.505 38.475 3 41 C2.34 41 1.68 41 1 41 C0.731875 41.969375 0.46375 42.93875 0.1875 43.9375 C-0.204375 44.948125 -0.59625 45.95875 -1 47 C-2.485 47.495 -2.485 47.495 -4 48 C-2.54422667 43.8753089 -0.41781866 40.62672799 2 37 C4.37547873 32.58839664 3.71497797 29.87752094 3 25 C2.74480124 21.2968579 2.61098518 17.5864749 2.48242188 13.87695312 C2.43738131 9.47143472 2.43738131 9.47143472 0 6 C-0.125 2.875 -0.125 2.875 0 0 Z " fill="#3E49AE" transform="translate(215,120)"/>
<path d="M0 0 C0.33 1.32 0.66 2.64 1 4 C0.01 4 -0.98 4 -2 4 C-2 4.66 -2 5.32 -2 6 C-1.34 6 -0.68 6 0 6 C2.09350689 9.4019487 2.17942163 12.05272412 2 16 C-0.64 16 -3.28 16 -6 16 C-6 22.93 -6 29.86 -6 37 C-6.33 37 -6.66 37 -7 37 C-7 29.74 -7 22.48 -7 15 C-9.475 16.485 -9.475 16.485 -12 18 C-12.99 18 -13.98 18 -15 18 C-14.071875 17.29875 -13.14375 16.5975 -12.1875 15.875 C-9.09904705 13.32684378 -7.55573813 10.71648553 -6 7 C-5.34 7 -4.68 7 -4 7 C-3.67 5.35 -3.34 3.7 -3 2 C-2.01 2.33 -1.02 2.66 0 3 C0 2.01 0 1.02 0 0 Z " fill="#E5A0CD" transform="translate(222,154)"/>
<path d="M0 0 C1.64574566 -0.02688151 3.29161413 -0.04634123 4.9375 -0.0625 C5.85402344 -0.07410156 6.77054688 -0.08570313 7.71484375 -0.09765625 C10 0 10 0 11 1 C11.04063832 2.66617115 11.042721 4.33388095 11 6 C11.598125 5.67 12.19625 5.34 12.8125 5 C15 4 15 4 18 4 C18.33 3.01 18.66 2.02 19 1 C21.0625 0.3125 21.0625 0.3125 23 0 C17.79007236 6.64714906 14.45592105 9.50594769 6 11 C0.67004661 11.33832837 -4.66647656 11.17866642 -10 11 C-10 10.34 -10 9.68 -10 9 C-9.18015625 8.97421875 -8.3603125 8.9484375 -7.515625 8.921875 C-5.89914063 8.83679688 -5.89914063 8.83679688 -4.25 8.75 C-3.18265625 8.70359375 -2.1153125 8.6571875 -1.015625 8.609375 C2.56257398 7.88631925 3.58247986 6.62773928 6 4 C6.99 4 7.98 4 9 4 C9 3.34 9 2.68 9 2 C6.36 2 3.72 2 1 2 C0.67 1.34 0.34 0.68 0 0 Z " fill="#2A37A9" transform="translate(188,168)"/>
<path d="M0 0 C1.9375 1.0625 1.9375 1.0625 3 3 C2.55555556 9.44444444 2.55555556 9.44444444 1 11 C-4.8410596 11.37086093 -4.8410596 11.37086093 -7 11 C-9.15502531 7.76746204 -9.46856135 6.74849077 -9 3 C-6.73529086 -0.64869805 -4.03159541 -0.50394943 0 0 Z " fill="#E71767" transform="translate(236,154)"/>
<path d="M0 0 C1.27875 -0.061875 2.5575 -0.12375 3.875 -0.1875 C4.95394531 -0.23970703 4.95394531 -0.23970703 6.0546875 -0.29296875 C6.69664062 -0.19628906 7.33859375 -0.09960938 8 0 C10 3 10 3 9.625 5.1875 C9.41875 5.785625 9.2125 6.38375 9 7 C8.34 7 7.68 7 7 7 C7 9.31 7 11.62 7 14 C4.69 14 2.38 14 0 14 C0 9.38 0 4.76 0 0 Z " fill="#6367B8" transform="translate(217,175)"/>
<path d="M0 0 C1.65 0 3.3 0 5 0 C5 2.97 5 5.94 5 9 C7.31 9 9.62 9 12 9 C12 10.65 12 12.3 12 14 C8.04 14 4.08 14 0 14 C0 9.38 0 4.76 0 0 Z " fill="#434CB0" transform="translate(265,175)"/>
<path d="M0 0 C0.66 0.66 1.32 1.32 2 2 C2.33 1.34 2.66 0.68 3 0 C4.32 0 5.64 0 7 0 C7 0.66 7 1.32 7 2 C5.34467377 3.01866229 3.67739862 4.01810813 2 5 C1.67 5.66 1.34 6.32 1 7 C2.32 7.66 3.64 8.32 5 9 C4.34 9 3.68 9 3 9 C3 9.66 3 10.32 3 11 C-1.33333333 11 -5.66666667 11 -10 11 C-11.7634375 11.0309375 -11.7634375 11.0309375 -13.5625 11.0625 C-17 11 -17 11 -19 10 C-19 8.68 -19 7.36 -19 6 C-18.34 6 -17.68 6 -17 6 C-17 6.99 -17 7.98 -17 9 C-16.01 8.67 -15.02 8.34 -14 8 C-5.7826087 7.73913043 -5.7826087 7.73913043 -2 9 C-2 7.02 -2 5.04 -2 3 C-3.98 3 -5.96 3 -8 3 C-8 2.34 -8 1.68 -8 1 C-5.23749964 -0.38125018 -3.05268901 -0.19079306 0 0 Z " fill="#EAA2BF" transform="translate(292,192)"/>
<path d="M0 0 C2.475 0.99 2.475 0.99 5 2 C5.02698189 3.62490954 5.04638757 5.24994633 5.0625 6.875 C5.07410156 7.77992188 5.08570313 8.68484375 5.09765625 9.6171875 C5 12 5 12 4 14 C-7.17894737 17.41052632 -7.17894737 17.41052632 -12 15 C-12 13.68 -12 12.36 -12 11 C-5.565 10.505 -5.565 10.505 1 10 C2.19988045 4.71800407 2.19988045 4.71800407 0 0 Z " fill="#9352A5" transform="translate(236,154)"/>
<path d="M0 0 C1.32 0 2.64 0 4 0 C4 0.99 4 1.98 4 3 C5.98 2.67 7.96 2.34 10 2 C11.125 6.75 11.125 6.75 10 9 C8.22880197 8.85866501 6.45804713 8.71176792 4.6875 8.5625 C3.70136719 8.48128906 2.71523438 8.40007812 1.69921875 8.31640625 C-1 8 -1 8 -4 7 C-4 5.68 -4 4.36 -4 3 C-3.01 2.67 -2.02 2.34 -1 2 C-0.67 1.34 -0.34 0.68 0 0 Z " fill="#EA5891" transform="translate(280,192)"/>
<path d="M0 0 C0.66 0 1.32 0 2 0 C2 0.99 2 1.98 2 3 C0.02 3.66 -1.96 4.32 -4 5 C-4.66 9.29 -5.32 13.58 -6 18 C-1.05 18 3.9 18 9 18 C9.33 18.66 9.66 19.32 10 20 C7.18743719 20.02684312 4.37512759 20.04676188 1.5625 20.0625 C0.76005859 20.07087891 -0.04238281 20.07925781 -0.86914062 20.08789062 C-2.91295221 20.0965143 -4.95683902 20.0522815 -7 20 C-8 19 -8 19 -8.09765625 16.05859375 C-8.08605469 14.86363281 -8.07445312 13.66867188 -8.0625 12.4375 C-8.05347656 11.23996094 -8.04445312 10.04242188 -8.03515625 8.80859375 C-8.02355469 7.88175781 -8.01195312 6.95492187 -8 6 C-8.99 5.67 -9.98 5.34 -11 5 C-7.49223216 3.39644899 -4.85645121 2.77963136 -1 3 C-0.67 2.01 -0.34 1.02 0 0 Z " fill="#D773A1" transform="translate(205,173)"/>
<path d="M0 0 C6.75 0 6.75 0 10 3 C9.67 4.65 9.34 6.3 9 8 C8.67 6.68 8.34 5.36 8 4 C7.01 4 6.02 4 5 4 C5.020625 4.969375 5.04125 5.93875 5.0625 6.9375 C5 10 5 10 4 11 C6.97 11.495 6.97 11.495 10 12 C10 12.33 10 12.66 10 13 C6.7 13 3.4 13 0 13 C0 8.71 0 4.42 0 0 Z " fill="#2C349F" transform="translate(250,175)"/>
<path d="M0 0 C2.42730529 3.64095794 2.17378607 5.05214926 1.55859375 9.19140625 C1 11 1 11 -1.0625 12.5 C-1.701875 12.665 -2.34125 12.83 -3 13 C-3.66 12.01 -4.32 11.02 -5 10 C-5.33 10.99 -5.66 11.98 -6 13 C-7.98 13 -9.96 13 -12 13 C-11.67 12.01 -11.34 11.02 -11 10 C-10.67 10.33 -10.34 10.66 -10 11 C-9.67 9.02 -9.34 7.04 -9 5 C-5.71303767 4.20046862 -4.28976808 3.90341064 -1 5 C-0.67 3.35 -0.34 1.7 0 0 Z " fill="#3640B1" transform="translate(296,176)"/>
<path d="M0 0 C1.32 0 2.64 0 4 0 C3.34122452 4.3479182 1.72535435 7.97417319 0 12 C-0.69140522 14.77888613 -0.69140522 14.77888613 -1 17 C-2.32 16.67 -3.64 16.34 -5 16 C-5.45376195 9.53389228 -4.62353082 6.38039425 -1 1 C-0.67 0.67 -0.34 0.34 0 0 Z " fill="#939AD1" transform="translate(206,83)"/>
<path d="M0 0 C0 7.59 0 15.18 0 23 C-5.77790229 23 -10.45847359 22.94323854 -16 22 C-16 20.35 -16 18.7 -16 17 C-15.67 18.32 -15.34 19.64 -15 21 C-10.71 21 -6.42 21 -2 21 C-2.01160156 19.86820313 -2.02320313 18.73640625 -2.03515625 17.5703125 C-2.04453454 16.08854331 -2.0536347 14.60677235 -2.0625 13.125 C-2.07087891 12.37863281 -2.07925781 11.63226563 -2.08789062 10.86328125 C-2.11328125 5.2265625 -2.11328125 5.2265625 -1 3 C-1.78375 3.474375 -2.5675 3.94875 -3.375 4.4375 C-4.88948678 5.33898023 -6.4235897 6.21179485 -8 7 C-8 6.01 -8 5.02 -8 4 C-3.77142857 0 -3.77142857 0 0 0 Z " fill="#E83476" transform="translate(215,169)"/>
<path d="M0 0 C3.21345948 0.36725251 4.79788597 0.83066122 7.3125 2.9375 C10.81937983 5.62882638 13.69205915 6.12380864 18 7 C17.34 7.45375 16.68 7.9075 16 8.375 C15.34 8.91125 14.68 9.4475 14 10 C14 10.66 14 11.32 14 12 C8.62287887 10.65571972 3.81947527 8.05213367 0 4 C0 2.68 0 1.36 0 0 Z " fill="#727DC3" transform="translate(157,166)"/>
<path d="M0 0 C3.46319569 3.46319569 3.46319569 3.46319569 3.5625 7.25 C3.37175349 11.73254299 2.16468893 14.51768073 -0.93359375 17.7578125 C-4.96257686 20.1797721 -9.47912144 19.50678888 -14 19 C-9.87477326 16.42173329 -7.45556967 16.68194621 -2 16 C-1.34 10.72 -0.68 5.44 0 0 Z " fill="#8083C9" transform="translate(242,152)"/>
<path d="M0 0 C2.95857409 -0.05379226 5.91617721 -0.09357093 8.875 -0.125 C9.71675781 -0.14175781 10.55851563 -0.15851563 11.42578125 -0.17578125 C12.23144531 -0.18222656 13.03710938 -0.18867187 13.8671875 -0.1953125 C14.98262939 -0.21102295 14.98262939 -0.21102295 16.12060547 -0.22705078 C18 0 18 0 20 2 C20.125 5.625 20.125 5.625 20 9 C19.67 9 19.34 9 19 9 C18.95875 10.27875 18.9175 11.5575 18.875 12.875 C18.85179687 13.59429687 18.82859375 14.31359375 18.8046875 15.0546875 C18.81668311 17.23863645 18.81668311 17.23863645 21 19 C20.625 22.125 20.625 22.125 20 25 C18.35 25 16.7 25 15 25 C15 24.01 15 23.02 15 22 C15.66 22 16.32 22 17 22 C17 15.07 17 8.14 17 1 C11.39 1 5.78 1 0 1 C0 0.67 0 0.34 0 0 Z " fill="#555FBF" transform="translate(198,126)"/>
<path d="M0 0 C3.17239897 2.88091787 4.99644695 5.53530325 6.75 9.4375 C7.39195312 10.82775391 7.39195312 10.82775391 8.046875 12.24609375 C9.01106601 15.03197351 9.19087637 17.07853116 9 20 C8.67 19.01 8.34 18.02 8 17 C7.01 17 6.02 17 5 17 C4.67 18.32 4.34 19.64 4 21 C4 18.69 4 16.38 4 14 C3.34 14 2.68 14 2 14 C1.01 11.36 0.02 8.72 -1 6 C-0.34 6 0.32 6 1 6 C0.67 4.02 0.34 2.04 0 0 Z " fill="#B0B5E0" transform="translate(240,90)"/>
<path d="M0 0 C2.31 0 4.62 0 7 0 C6.67 0.763125 6.34 1.52625 6 2.3125 C4.82563314 4.99069135 4.82563314 4.99069135 5 8 C5 8.99 5 9.98 5 11 C5.66 11 6.32 11 7 11 C7.33 11.99 7.66 12.98 8 14 C5.36 14 2.72 14 0 14 C0.2165625 12.948125 0.2165625 12.948125 0.4375 11.875 C1.01478375 8.92443859 1.51695141 5.96729849 2 3 C0.35 3.66 -1.3 4.32 -3 5 C-3 4.34 -3 3.68 -3 3 C-2.34 3 -1.68 3 -1 3 C-0.67 2.01 -0.34 1.02 0 0 Z " fill="#4A52A9" transform="translate(309,175)"/>
<path d="M0 0 C1.65 0 3.3 0 5 0 C5 4.62 5 9.24 5 14 C3.35 14 1.7 14 0 14 C0 9.38 0 4.76 0 0 Z " fill="#3C47A7" transform="translate(278,175)"/>
<path d="M0 0 C0.33 0.99 0.66 1.98 1 3 C4.3 3 7.6 3 11 3 C11.33 4.98 11.66 6.96 12 9 C8.04 8.67 4.08 8.34 0 8 C0 5.36 0 2.72 0 0 Z " fill="#E94381" transform="translate(239,192)"/>
<path d="M0 0 C0.33 0.99 0.66 1.98 1 3 C2.32 2.67 3.64 2.34 5 2 C4.41712333 5.69373527 3.40083644 8.49881745 1.5625 11.75 C1.13066406 12.52859375 0.69882813 13.3071875 0.25390625 14.109375 C-1 16 -1 16 -3 17 C-3 15.68 -3 14.36 -3 13 C-3.66 12.67 -4.32 12.34 -5 12 C-4.360625 11.13375 -3.72125 10.2675 -3.0625 9.375 C-1.02451704 6.0401188 -0.36566907 3.83952522 0 0 Z " fill="#8490C9" transform="translate(244,135)"/>
<path d="M0 0 C0.33 0 0.66 0 1 0 C1 2.64 1 5.28 1 8 C4.96 8.33 8.92 8.66 13 9 C13 7.35 13 5.7 13 4 C13.99 4.33 14.98 4.66 16 5 C16.33 6.98 16.66 8.96 17 11 C14.18743719 11.02684312 11.37512759 11.04676188 8.5625 11.0625 C7.76005859 11.07087891 6.95761719 11.07925781 6.13085938 11.08789062 C4.08704779 11.0965143 2.04316098 11.0522815 0 11 C-0.33 10.67 -0.66 10.34 -1 10 C-0.91036938 8.30858344 -0.75422324 6.62040398 -0.5625 4.9375 C-0.46066406 4.01839844 -0.35882813 3.09929687 -0.25390625 2.15234375 C-0.17011719 1.44207031 -0.08632812 0.73179687 0 0 Z " fill="#E693B6" transform="translate(238,192)"/>
<path d="M0 0 C0 1.65 0 3.3 0 5 C-0.99 5.33 -1.98 5.66 -3 6 C-3 5.34 -3 4.68 -3 4 C-4.1446875 4.5259375 -4.1446875 4.5259375 -5.3125 5.0625 C-8 6 -8 6 -11 5 C-10.67 3.35 -10.34 1.7 -10 0 C-2.25 -1.125 -2.25 -1.125 0 0 Z " fill="#E74381" transform="translate(312,194)"/>
<path d="M0 0 C2.69082872 0.17635452 5.32851446 0.61835921 8 1 C7.67 1.66 7.34 2.32 7 3 C4.9375 3.625 4.9375 3.625 3 4 C4.98 4 6.96 4 9 4 C9 5.32 9 6.64 9 8 C5.37 8 1.74 8 -2 8 C-1.34 7.34 -0.68 6.68 0 6 C-0.28604898 4.32457024 -0.61781233 2.65614657 -1 1 C-0.67 0.67 -0.34 0.34 0 0 Z " fill="#2430A9" transform="translate(239,180)"/>
<path d="M0 0 C0.99 0.33 1.98 0.66 3 1 C3 6.28 3 11.56 3 17 C3.66 17.33 4.32 17.66 5 18 C3.0625 18.5625 3.0625 18.5625 1 19 C0 18 0 18 -0.11352539 16.23413086 C-0.10828857 15.48526611 -0.10305176 14.73640137 -0.09765625 13.96484375 C-0.09443359 13.15595703 -0.09121094 12.34707031 -0.08789062 11.51367188 C-0.07951172 10.66353516 -0.07113281 9.81339844 -0.0625 8.9375 C-0.05798828 8.08349609 -0.05347656 7.22949219 -0.04882812 6.34960938 C-0.03700373 4.23304337 -0.01906769 2.11651315 0 0 Z " fill="#4550B5" transform="translate(172,151)"/>
<path d="M0 0 C2.16817892 3.55193538 2.38433789 6.69896054 2.625 10.8125 C2.69976562 11.99457031 2.77453125 13.17664063 2.8515625 14.39453125 C2.99730287 17.93448803 3.0272151 21.45750151 3 25 C2.34 25.33 1.68 25.66 1 26 C0.17701492 21.73719447 -0.08192583 17.77444878 0 13.4375 C0.06051228 10.22656696 0.07546358 7.37260143 -0.5625 4.22265625 C-1 2 -1 2 0 0 Z " fill="#868FCC" transform="translate(221,126)"/>
<path d="M0 0 C0.33 0 0.66 0 1 0 C1 1.65 1 3.3 1 5 C1.50015625 4.82597656 2.0003125 4.65195313 2.515625 4.47265625 C5.96486922 3.81643211 9.27822172 4.15201351 12.75 4.4375 C13.44738281 4.48970703 14.14476562 4.54191406 14.86328125 4.59570312 C16.57596203 4.72474072 18.28805066 4.86159614 20 5 C20 5.33 20 5.66 20 6 C18.02 6.33 16.04 6.66 14 7 C14 7.33 14 7.66 14 8 C9.38 8 4.76 8 0 8 C0 5.36 0 2.72 0 0 Z " fill="#2336A8" transform="translate(175,162)"/>
<path d="M0 0 C1.65 0 3.3 0 5 0 C5 3.3 5 6.6 5 10 C6.98 10 8.96 10 11 10 C11 10.99 11 11.98 11 13 C7.7 13 4.4 13 1 13 C1.99 12.67 2.98 12.34 4 12 C4 8.37 4 4.74 4 1 C3.01 1 2.02 1 1 1 C1 4.3 1 7.6 1 11 C0.67 11 0.34 11 0 11 C0 7.37 0 3.74 0 0 Z " fill="#2E379B" transform="translate(265,175)"/>
<path d="M0 0 C1.65 0 3.3 0 5 0 C5 4.62 5 9.24 5 14 C3.35 13.67 1.7 13.34 0 13 C0.99 12.67 1.98 12.34 3 12 C3 9.36 3 6.72 3 4 C1.02 4.99 1.02 4.99 -1 6 C-1 3 -1 3 0 0 Z " fill="#575FB0" transform="translate(294,175)"/>
<path d="M0 0 C1.65 0 3.3 0 5 0 C4.01 0.33 3.02 0.66 2 1 C2.185625 2.27875 2.37125 3.5575 2.5625 4.875 C3.125 8.75 3.125 8.75 2 11 C3.32 11.33 4.64 11.66 6 12 C6 12.66 6 13.32 6 14 C4.02 14 2.04 14 0 14 C0 9.38 0 4.76 0 0 Z " fill="#4D55A8" transform="translate(300,175)"/>
<path d="M0 0 C5.94 0 11.88 0 18 0 C18 0.66 18 1.32 18 2 C12.72 2 7.44 2 2 2 C1.67 2.99 1.34 3.98 1 5 C0.34 4.34 -0.32 3.68 -1 3 C-0.67 2.01 -0.34 1.02 0 0 Z " fill="#4652B3" transform="translate(197,127)"/>
<path d="M0 0 C0.66 0 1.32 0 2 0 C3.478746 4.436238 1.74833678 6.73405826 0 11 C-4.29 11 -8.58 11 -13 11 C-12.67 10.34 -12.34 9.68 -12 9 C-7.28927624 8.15052522 -4.68627018 7.82843246 0 9 C0 6.03 0 3.06 0 0 Z " fill="#EDB1CA" transform="translate(314,192)"/>
<path d="M0 0 C0 7.59 0 15.18 0 23 C-0.33 23 -0.66 23 -1 23 C-1 16.4 -1 9.8 -1 3 C-3.475 4.485 -3.475 4.485 -6 6 C-6.99 6.495 -6.99 6.495 -8 7 C-8 6.01 -8 5.02 -8 4 C-3.77142857 0 -3.77142857 0 0 0 Z " fill="#B64176" transform="translate(215,169)"/>
<path d="M0 0 C0.33 1.32 0.66 2.64 1 4 C0.01 4 -0.98 4 -2 4 C-2 4.66 -2 5.32 -2 6 C-1.34 6 -0.68 6 0 6 C1.42944945 8.35438733 2.08661261 9.48032433 1.625 12.25 C1.41875 12.8275 1.2125 13.405 1 14 C0.34 12.02 -0.32 10.04 -1 8 C-3.88437779 9.29299694 -5.87219421 10.65941363 -8 13 C-7.49396008 10.83125748 -7.00016187 9.00032373 -6 7 C-5.34 7 -4.68 7 -4 7 C-3.67 5.35 -3.34 3.7 -3 2 C-2.01 2.33 -1.02 2.66 0 3 C0 2.01 0 1.02 0 0 Z " fill="#B579BC" transform="translate(222,154)"/>
<path d="M0 0 C1.03125 0.165 2.0625 0.33 3.125 0.5 C6.48244326 0.93321848 9.62336157 1.08235703 13 1 C12.34 1.66 11.68 2.32 11 3 C11.33 3.66 11.66 4.32 12 5 C11.0625 7.125 11.0625 7.125 10 9 C10 7.35 10 5.7 10 4 C6.7 4 3.4 4 0 4 C0 2.68 0 1.36 0 0 Z " fill="#D971A0" transform="translate(240,191)"/>
<path d="M0 0 C1.32 0 2.64 0 4 0 C3.45276317 3.37462715 2.9451 5.08235 1 8 C-0.32 7.67 -1.64 7.34 -3 7 C-2.25 2.25 -2.25 2.25 0 0 Z " fill="#8F97C9" transform="translate(206,83)"/>
<path d="M0 0 C1.32 0 2.64 0 4 0 C4 3.3 4 6.6 4 10 C3.01 10.33 2.02 10.66 1 11 C0.855625 10.401875 0.71125 9.80375 0.5625 9.1875 C0.1127561 7.43849596 -0.42892341 5.71322977 -1 4 C-0.5625 1.8125 -0.5625 1.8125 0 0 Z " fill="#2934B7" transform="translate(229,177)"/>
<path d="M0 0 C0.04254356 1.99954746 0.04080783 4.00041636 0 6 C-1 7 -1 7 -4.0625 7.0625 C-5.031875 7.041875 -6.00125 7.02125 -7 7 C-7 4 -7 4 -5.6875 2.375 C-3.93478133 0.94685887 -2.36622962 0 0 0 Z " fill="#E44883" transform="translate(300,193)"/>
<path d="M0 0 C1.32 0 2.64 0 4 0 C3.67 1.65 3.34 3.3 3 5 C2.34 5 1.68 5 1 5 C1 5.66 1 6.32 1 7 C1.66 7 2.32 7 3 7 C3 8.65 3 10.3 3 12 C2.01 12 1.02 12 0 12 C0 8.04 0 4.08 0 0 Z " fill="#2832AF" transform="translate(219,176)"/>
<path d="M0 0 C2.31 0 4.62 0 7 0 C5.75023244 3.65316671 5.32901247 4.78065836 2 7 C2 5.68 2 4.36 2 3 C0.35 3.66 -1.3 4.32 -3 5 C-3 4.34 -3 3.68 -3 3 C-2.34 3 -1.68 3 -1 3 C-0.67 2.01 -0.34 1.02 0 0 Z " fill="#5564B4" transform="translate(309,175)"/>
<path d="M0 0 C3.68754757 0.49831724 5.60490662 1.10067643 8 4 C7.34 4 6.68 4 6 4 C5.67 4.99 5.34 5.98 5 7 C3.0625 6.3125 3.0625 6.3125 1 5 C0.25 2.375 0.25 2.375 0 0 Z " fill="#868DC5" transform="translate(157,166)"/>
<path d="M0 0 C2.475 0.495 2.475 0.495 5 1 C5.33 2.65 5.66 4.3 6 6 C5.34 6 4.68 6 4 6 C3.67 7.32 3.34 8.64 3 10 C0.96564469 6.27034861 0 4.33094958 0 0 Z " fill="#98A0D7" transform="translate(201,99)"/>
<path d="M0 0 C0.99 0 1.98 0 3 0 C3.12375 0.94875 3.2475 1.8975 3.375 2.875 C3.71687177 6.08667191 3.71687177 6.08667191 6 8 C5.01 8.495 5.01 8.495 4 9 C3.34 8.67 2.68 8.34 2 8 C2 8.66 2 9.32 2 10 C1.34 10 0.68 10 0 10 C0 6.7 0 3.4 0 0 Z " fill="#2633AE" transform="translate(302,176)"/>
<path d="M0 0 C0.66 0.33 1.32 0.66 2 1 C0.47005208 2.23697917 -1.05989583 3.47395833 -2.58984375 4.7109375 C-4.13266437 5.9666391 -4.13266437 5.9666391 -5 8 C-6.84765625 8.6328125 -6.84765625 8.6328125 -9.0625 9.125 C-9.79597656 9.29257813 -10.52945313 9.46015625 -11.28515625 9.6328125 C-11.85105469 9.75398437 -12.41695312 9.87515625 -13 10 C-13 9.34 -13 8.68 -13 8 C-6.375 4 -6.375 4 -3 4 C-2.67 3.01 -2.34 2.02 -2 1 C-1.34 0.67 -0.68 0.34 0 0 Z " fill="#5240A8" transform="translate(209,168)"/>
<path d="M0 0 C1.65 0 3.3 0 5 0 C6.35439668 2.70879335 6.06501451 5.00933268 6 8 C4.35 8.33 2.7 8.66 1 9 C0.67 8.34 0.34 7.68 0 7 C0.99 7 1.98 7 3 7 C3 5.02 3 3.04 3 1 C2.01 0.67 1.02 0.34 0 0 Z " fill="#F20A5B" transform="translate(231,155)"/>
<path d="M0 0 C2.64 0.33 5.28 0.66 8 1 C7.67 2.32 7.34 3.64 7 5 C4.69 4.67 2.38 4.34 0 4 C0 2.68 0 1.36 0 0 Z " fill="#E73C7B" transform="translate(276,195)"/>
<path d="M0 0 C2.95857409 -0.05379226 5.91617721 -0.09357093 8.875 -0.125 C9.71675781 -0.14175781 10.55851563 -0.15851563 11.42578125 -0.17578125 C12.23144531 -0.18222656 13.03710938 -0.18867187 13.8671875 -0.1953125 C14.98262939 -0.21102295 14.98262939 -0.21102295 16.12060547 -0.22705078 C18 0 18 0 20 2 C20.125 5.625 20.125 5.625 20 9 C18.5268006 6.25002779 17.77595125 4.10380501 17 1 C11.39 1 5.78 1 0 1 C0 0.67 0 0.34 0 0 Z " fill="#9DA7DC" transform="translate(198,126)"/>
<path d="M0 0 C0.99 0.33 1.98 0.66 3 1 C4.1875 4.0625 4.1875 4.0625 5 7 C2.69 6.67 0.38 6.34 -2 6 C-1.34 4.02 -0.68 2.04 0 0 Z " fill="#E6457F" transform="translate(257,194)"/>
<path d="M0 0 C1.32 0.33 2.64 0.66 4 1 C3.67 3.64 3.34 6.28 3 9 C2.01 9.33 1.02 9.66 0 10 C0 6.7 0 3.4 0 0 Z " fill="#2632B4" transform="translate(251,177)"/>
<path d="M0 0 C-0.33 0.66 -0.66 1.32 -1 2 C-4.98866127 2.99716532 -8.0323069 3.0502717 -12 2 C-9.67178678 -2.65642643 -4.2230553 -0.62307373 0 0 Z " fill="#949AD3" transform="translate(239,148)"/>
<path d="M0 0 C0.66 0 1.32 0 2 0 C2.05391993 1.79133978 2.09275571 3.58313899 2.125 5.375 C2.14820313 6.37273437 2.17140625 7.37046875 2.1953125 8.3984375 C2 11 2 11 0 13 C-0.66 12.67 -1.32 12.34 -2 12 C-2 9 -2 9 0 7 C0.16677282 3.41656024 0.16677282 3.41656024 0 0 Z " fill="#747BBA" transform="translate(247,126)"/>
<path d="M0 0 C0.99 0 1.98 0 3 0 C3 0.99 3 1.98 3 3 C3.66 3 4.32 3 5 3 C5 4.98 5 6.96 5 9 C4.67 8.01 4.34 7.02 4 6 C2.68 6.33 1.36 6.66 0 7 C0 4.69 0 2.38 0 0 Z " fill="#9DA6D6" transform="translate(245,107)"/>
<path d="M0 0 C3.63 0 7.26 0 11 0 C11 0.33 11 0.66 11 1 C8.36 1.33 5.72 1.66 3 2 C2.67 3.65 2.34 5.3 2 7 C0 4 0 4 0 0 Z " fill="#E685B0" transform="translate(268,192)"/>
<path d="M0 0 C2.3125 -0.25 2.3125 -0.25 5 0 C7.65315971 2.37869491 7.98103345 3.67124653 8.1875 7.25 C8.125625 8.1575 8.06375 9.065 8 10 C7.608125 9.46375 7.21625 8.9275 6.8125 8.375 C4.6244612 5.50791468 2.32120704 2.76035432 0 0 Z " fill="#5962B4" transform="translate(256,175)"/>
<path d="M0 0 C3.3 0 6.6 0 10 0 C10.33 1.32 10.66 2.64 11 4 C9.35 4.33 7.7 4.66 6 5 C6.99 4.67 7.98 4.34 9 4 C9 3.34 9 2.68 9 2 C6.36 2 3.72 2 1 2 C0.67 1.34 0.34 0.68 0 0 Z " fill="#4C58B7" transform="translate(188,168)"/>
<path d="M0 0 C1.98 0 3.96 0 6 0 C6 1.32 6 2.64 6 4 C2.37 4 -1.26 4 -5 4 C-5 3.67 -5 3.34 -5 3 C-3.35 2.67 -1.7 2.34 0 2 C0 1.34 0 0.68 0 0 Z " fill="#1E2EB8" transform="translate(242,184)"/>
<path d="M0 0 C2.31 0 4.62 0 7 0 C7 1.32 7 2.64 7 4 C6.67 3.34 6.34 2.68 6 2 C4.68 2.33 3.36 2.66 2 3 C1.67 4.65 1.34 6.3 1 8 C0.67 8 0.34 8 0 8 C0 5.36 0 2.72 0 0 Z " fill="#5E66B7" transform="translate(284,175)"/>
<path d="M0 0 C1.32 0.33 2.64 0.66 4 1 C4.33 2.32 4.66 3.64 5 5 C3.02 5 1.04 5 -1 5 C-1.33 4.34 -1.66 3.68 -2 3 C-1.34 2.01 -0.68 1.02 0 0 Z " fill="#D1256B" transform="translate(219,164)"/>
<path d="M0 0 C2.31 0.66 4.62 1.32 7 2 C7.33 3.32 7.66 4.64 8 6 C2.25 4.125 2.25 4.125 0 3 C0 2.01 0 1.02 0 0 Z " fill="#8D94C9" transform="translate(229,84)"/>
<path d="M0 0 C1.32 0 2.64 0 4 0 C4 2.97 4 5.94 4 9 C2.68 8.67 1.36 8.34 0 8 C0.33 7.67 0.66 7.34 1 7 C1.19149081 3.36805359 1.19149081 3.36805359 0 0 Z " fill="#E26696" transform="translate(310,192)"/>
<path d="M0 0 C0.33 1.32 0.66 2.64 1 4 C-0.65 4 -2.3 4 -4 4 C-4 3.34 -4 2.68 -4 2 C-5.65 2 -7.3 2 -9 2 C-9.33 2.66 -9.66 3.32 -10 4 C-10 3.01 -10 2.02 -10 1 C-6.7 0.67 -3.4 0.34 0 0 Z " fill="#2B359D" transform="translate(247,175)"/>
<path d="M0 0 C-0.33 0.99 -0.66 1.98 -1 3 C-4.63 3 -8.26 3 -12 3 C-7.42164847 0.71082423 -5.08462738 0 0 0 Z " fill="#7F82C1" transform="translate(240,168)"/>
<path d="M0 0 C0.66 0 1.32 0 2 0 C2.33 2.64 2.66 5.28 3 8 C2.34 8 1.68 8 1 8 C1 6.68 1 5.36 1 4 C-1.97 3.505 -1.97 3.505 -5 3 C-4.360625 2.690625 -3.72125 2.38125 -3.0625 2.0625 C-1.06389179 1.1654837 -1.06389179 1.1654837 0 0 Z " fill="#6B70BF" transform="translate(239,148)"/>
<path d="M0 0 C4.875 2.625 4.875 2.625 6 6 C4.02 6.99 4.02 6.99 2 8 C0 6 0 6 -0.125 2.875 C-0.08375 1.92625 -0.0425 0.9775 0 0 Z " fill="#6272BB" transform="translate(215,120)"/>
<path d="M0 0 C0 1.65 0 3.3 0 5 C-0.5775 4.67 -1.155 4.34 -1.75 4 C-4.19883862 2.72924102 -4.19883862 2.72924102 -8 3 C-8 2.34 -8 1.68 -8 1 C-5.29120665 -0.35439668 -2.99066732 -0.06501451 0 0 Z " fill="#E384AA" transform="translate(292,192)"/>
<path d="M0 0 C2.10633718 1.70828921 2.93801608 2.52148416 3.29296875 5.26171875 C3.25816406 6.06222656 3.22335938 6.86273438 3.1875 7.6875 C3.16042969 8.49574219 3.13335937 9.30398437 3.10546875 10.13671875 C3.07066406 10.75160156 3.03585938 11.36648437 3 12 C2.67 12 2.34 12 2 12 C2 10.02 2 8.04 2 6 C1.01 6 0.02 6 -1 6 C-0.67 4.02 -0.34 2.04 0 0 Z " fill="#9597CE" transform="translate(242,152)"/>
<path d="M0 0 C0.66666667 2.66666667 1.33333333 5.33333333 2 8 C1.01 8.66 0.02 9.32 -1 10 C-1 8.68 -1 7.36 -1 6 C-1.66 5.67 -2.32 5.34 -3 5 C-2.01 3.35 -1.02 1.7 0 0 Z " fill="#9FA8D7" transform="translate(242,142)"/>
<path d="M0 0 C2.16874252 0.50603992 3.99967627 0.99983813 6 2 C6 2.66 6 3.32 6 4 C5.443125 3.814375 4.88625 3.62875 4.3125 3.4375 C1.600867 2.92448835 -0.34371039 3.3359276 -3 4 C-3 3.34 -3 2.68 -3 2 C-2.01 2 -1.02 2 0 2 C0 1.34 0 0.68 0 0 Z " fill="#E9B5C7" transform="translate(266,199)"/>
<path d="M0 0 C0.66 0.33 1.32 0.66 2 1 C2 3.31 2 5.62 2 8 C0.35 7.67 -1.3 7.34 -3 7 C-2.01 6.67 -1.02 6.34 0 6 C0 4.02 0 2.04 0 0 Z " fill="#4850A4" transform="translate(297,181)"/>
<path d="M0 0 C7.75 -0.125 7.75 -0.125 10 1 C9.67 2.32 9.34 3.64 9 5 C8.443125 4.525625 7.88625 4.05125 7.3125 3.5625 C4.81653926 1.87604004 2.9553763 1.41046893 0 1 C0 0.67 0 0.34 0 0 Z " fill="#8963B5" transform="translate(230,151)"/>
<path d="M0 0 C1 3 1 3 0.22265625 4.82421875 C-0.8515625 6.54947917 -1.92578125 8.27473958 -3 10 C-3.66 10 -4.32 10 -5 10 C-3.66511872 6.40608886 -2.03977277 3.24509304 0 0 Z " fill="#4A42AA" transform="translate(216,158)"/>
<path d="M0 0 C2 2 2 2 2.125 4.625 C2.08375 5.40875 2.0425 6.1925 2 7 C1.67 6.01 1.34 5.02 1 4 C0.01 4 -0.98 4 -2 4 C-2.33 5.32 -2.66 6.64 -3 8 C-3 6.02 -3 4.04 -3 2 C-2.01 2 -1.02 2 0 2 C0 1.34 0 0.68 0 0 Z " fill="#B7BAE1" transform="translate(247,103)"/>
<path d="M0 0 C1.65 0 3.3 0 5 0 C4.67 1.65 4.34 3.3 4 5 C2.68 4.67 1.36 4.34 0 4 C0 2.68 0 1.36 0 0 Z " fill="#886FB8" transform="translate(224,165)"/>
<path d="M0 0 C0.99 0.99 1.98 1.98 3 3 C1.68 4.32 0.36 5.64 -1 7 C-1.66 5.68 -2.32 4.36 -3 3 C-2.01 3 -1.02 3 0 3 C0 2.01 0 1.02 0 0 Z " fill="#A0A5DF" transform="translate(211,111)"/>
<path d="M0 0 C0.33 0.66 0.66 1.32 1 2 C1.66 2 2.32 2 3 2 C3 3.32 3 4.64 3 6 C1.68 5.67 0.36 5.34 -1 5 C-0.67 3.35 -0.34 1.7 0 0 Z " fill="#8C8DC9" transform="translate(244,99)"/>
<path d="M0 0 C0.99 0 1.98 0 3 0 C3.66 1.65 4.32 3.3 5 5 C3.68 5.33 2.36 5.66 1 6 C0.67 4.02 0.34 2.04 0 0 Z " fill="#5E62BD" transform="translate(222,175)"/>
<path d="M0 0 C0.33 0.99 0.66 1.98 1 3 C2.32 2.67 3.64 2.34 5 2 C4.67 3.65 4.34 5.3 4 7 C3.34 7 2.68 7 2 7 C2 6.34 2 5.68 2 5 C1.34 5 0.68 5 0 5 C0 3.35 0 1.7 0 0 Z " fill="#B3BADE" transform="translate(244,135)"/>
<path d="M0 0 C0.99 0 1.98 0 3 0 C3 1.65 3 3.3 3 5 C1.68 4.67 0.36 4.34 -1 4 C-0.67 2.68 -0.34 1.36 0 0 Z " fill="#727AC0" transform="translate(202,95)"/>
</svg>
